{
  "accessors": [
    {
      "bufferView": 2,
      "componentType": 5126,
      "count": 32070,
      "max": [
        40.540554046630859,
        20.663328170776367,
        5.8210268020629883
      ],
      "min": [
        -27.378429412841797,
        -35.513557434082031,
        -13.35090446472168
      ],
      "type": "VEC3"
    },
    {
      "bufferView": 2,
      "byteOffset": 384840,
      "componentType": 5126,
      "count": 32070,
      "max": [
        0.99926859140396118,
        0.99995648860931396,
        0.99998372793197632
      ],
      "min": [
        -0.99998492002487183,
        -0.99996024370193481,
        -0.99999850988388062
      ],
      "type": "VEC3"
    },
    {
      "bufferView": 3,
      "componentType": 5126,
      "count": 32070,
      "max": [
        0.9999803900718689,
        0.99993366003036499,
        0.99999690055847168,
        1
      ],
      "min": [
        -0.9999992847442627,
        -0.99997317790985107,
        -0.99999916553497314,
        -1
      ],
      "type": "VEC4"
    },
    {
      "bufferView": 1,
      "componentType": 5126,
      "count": 32070,
      "max": [
        0.99994421005249023,
        0.99993300437927246
      ],
      "min": [
        1.2481585144996643e-05,
        0.00011706911027431488
      ],
      "type": "VEC2"
    },
    {
      "bufferView": 1,
      "byteOffset": 256560,
      "componentType": 5126,
      "count": 32070,
      "max": [
        0.99994421005249023,
        0.99993300437927246
      ],
      "min": [
        1.2481585144996643e-05,
        0.00011706911027431488
      ],
      "type": "VEC2"
    },
    {
      "bufferView": 0,
      "componentType": 5125,
      "count": 149985,
      "max": [
        32069
      ],
      "min": [
        0
      ],
      "type": "SCALAR"
    }
  ],
  "asset": {
    "extras": {
      "author": "PolarNick239 (https://sketchfab.com/PolarNick239)",
      "license": "CC-BY-4.0 (http://creativecommons.org/licenses/by/4.0/)",
      "source": "https://sketchfab.com/3d-models/gerezani-fort-kilwa-kisiwani-tanzania-c253ff6e69074525839e0b9e7ebe05a8",
      "title": "Gerezani fort, Kilwa Kisiwani, Tanzania"
    },
    "generator": "Sketchfab-7.58.0",
    "version": "2.0"
  },
  "bufferViews": [
    {
      "buffer": 0,
      "byteLength": 599940,
      "byteOffset": 0,
      "name": "floatBufferViews",
      "target": 34963
    },
    {
      "buffer": 0,
      "byteLength": 513120,
      "byteOffset": 599940,
      "byteStride": 8,
      "name": "floatBufferViews",
      "target": 34962
    },
    {
      "buffer": 0,
      "byteLength": 769680,
      "byteOffset": 1113060,
      "byteStride": 12,
      "name": "floatBufferViews",
      "target": 34962
    },
    {
      "buffer": 0,
      "byteLength": 513120,
      "byteOffset": 1882740,
      "byteStride": 16,
      "name": "floatBufferViews",
      "target": 34962
    }
  ],
  "buffers": [
    {
      "byteLength": 2395860,
      "uri": "scene.bin"
    }
  ],
  "extensionsRequired": [
    "KHR_materials_pbrSpecularGlossiness"
  ],
  "extensionsUsed": [
    "KHR_materials_pbrSpecularGlossiness"
  ],
  "images": [
    {
      "uri": "textures/material0_diffuse.jpeg"
    },
    {
      "uri": "textures/material0_normal.jpeg"
    },
    {
      "uri": "textures/material0_occlusion.png"
    }
  ],
  "materials": [
    {
      "doubleSided": true,
      "extensions": {
        "KHR_materials_pbrSpecularGlossiness": {
          "diffuseFactor": [
            1,
            1,
            1,
            1
          ],
          "diffuseTexture": {
            "index": 0,
            "texCoord": 0
          },
          "glossinessFactor": 0,
          "specularFactor": [
            0,
            0,
            0
          ]
        }
      },
      "name": "material0",
      "normalTexture": {
        "index": 1,
        "scale": 1,
        "texCoord": 0
      },
      "occlusionTexture": {
        "index": 2,
        "strength": 1,
        "texCoord": 0
      }
    }
  ],
  "meshes": [
    {
      "name": "Model_material0_0",
      "primitives": [
        {
          "attributes": {
            "NORMAL": 1,
            "POSITION": 0,
            "TANGENT": 2,
            "TEXCOORD_0": 3,
            "TEXCOORD_1": 4
          },
          "indices": 5,
          "material": 0,
          "mode": 4
        }
      ]
    }
  ],
  "nodes": [
    {
      "children": [
        1
      ],
      "name": "RootNode (gltf orientation matrix)",
      "rotation": [
        -0.70710678118654746,
        -0,
        -0,
        0.70710678118654757
      ]
    },
    {
      "children": [
        2
      ],
      "name": "RootNode (model correction matrix)"
    },
    {
      "children": [
        3
      ],
      "matrix": [
        1,
        0,
        0,
        0,
        0,
        -1,
        0,
        0,
        0,
        0,
        -1,
        0,
        0,
        0,
        0,
        1
      ],
      "name": "model.fbx"
    },
    {
      "children": [
        4
      ],
      "name": "RootNode"
    },
    {
      "children": [
        5
      ],
      "name": "Model"
    },
    {
      "mesh": 0,
      "name": "Model_material0_0"
    }
  ],
  "samplers": [
    {
      "magFilter": 9729,
      "minFilter": 9987,
      "wrapS": 10497,
      "wrapT": 10497
    }
  ],
  "scene": 0,
  "scenes": [
    {
      "name": "OSG_Scene",
      "nodes": [
        0
      ]
    }
  ],
  "textures": [
    {
      "sampler": 0,
      "source": 0
    },
    {
      "sampler": 0,
      "source": 1
    },
    {
      "sampler": 0,
      "source": 2
    }
  ]
}

